<?xml version="1.0" encoding="utf-8"?>
<!-- Uploaded to: SVG Repo, www.svgrepo.com, Generator: SVG Repo Mixer Tools -->
<svg width="800px" height="800px" viewBox="0 0 1024 1024" class="icon"  version="1.1" xmlns="http://www.w3.org/2000/svg"><path d="M619.789474 754.526316c-166.858105 0-267.802947-81.677474-328.946527-177.340632-18.755368 9.970526-39.612632 15.656421-61.790315 15.656421-41.391158 0-81.219368-19.402105-109.244632-53.221052-16.599579-20.021895-44.490105-53.786947-64.619789-93.696C68.958316 680.555789 201.350737 916.210526 538.947368 916.210526c124.173474 0 230.642526-44.759579 307.846737-129.455158 71.760842-78.713263 115.065263-190.275368 123.742316-310.460631C901.389474 635.095579 806.157474 754.526316 619.789474 754.526316z" fill="#FFAF6E" /><path d="M272.168421 390.736842c0 34.250105-13.231158 44.463158-29.642105 44.463158s-29.642105-10.213053-29.642105-44.463158c0-34.223158 13.231158-44.463158 29.642105-44.463158s29.642105 10.24 29.642105 44.463158z m698.664421 2.802526c9.350737 150.797474-36.028632 296.663579-124.065684 393.216C769.589895 871.450947 663.120842 916.210526 538.947368 916.210526c-177.960421 0-298.873263-65.536-375.511579-161.818947a132.850526 132.850526 0 0 0-1.751578 18.108632c0 33.253053 8.111158 46.376421 19.34821 64.512C196.419368 861.857684 215.578947 892.793263 215.578947 970.105263H161.684211c0-61.978947-12.853895-82.728421-26.462316-104.717474C122.368 844.638316 107.789474 821.113263 107.789474 772.500211c0-22.797474 8.811789-61.844211 13.662315-81.650527C74.293895 604.537263 53.894737 503.026526 53.894737 404.210526v-86.662737A234.657684 234.657684 0 0 1 0 323.368421v-53.894737c79.548632 0 107.789474-24.414316 107.789474-161.68421h53.894737c0 18.782316-0.619789 36.432842-1.940211 53.086315 64.943158-3.826526 89.330526-22.608842 116.762947-44.112842C314.098526 87.282526 356.675368 53.894737 485.052632 53.894737v53.894737c-109.783579 0-141.581474 24.953263-175.265685 51.361684-10.913684 8.542316-21.935158 17.219368-35.031579 25.088 125.898105 39.989895 190.868211 125.628632 249.882948 203.371789C588.853895 472.144842 639.514947 538.947368 754.526316 538.947368c74.024421 0 124.254316-61.116632 147.267368-111.023157-10.105263 2.101895-20.587789 3.233684-31.312842 3.233684-75.264 0-113.286737-36.432842-143.845053-65.697684C701.143579 341.018947 682.684632 323.368421 646.736842 323.368421v-53.894737c57.613474 0 89.276632 30.315789 117.194105 57.074527C792.306526 353.765053 816.855579 377.263158 870.480842 377.263158A99.705263 99.705263 0 0 0 970.105263 277.638737c0-42.145684-10.752-65.697684-23.228631-92.968421C932.486737 153.249684 916.210526 117.652211 916.210526 53.894737h53.894737c0 52.008421 12.530526 79.386947 25.761684 108.355368C1009.717895 192.485053 1024 223.770947 1024 277.638737a153.061053 153.061053 0 0 1-53.167158 115.900631z m-57.505684 116.816843C876.948211 555.600842 823.592421 592.842105 754.526316 592.842105c-141.770105 0-208.357053-87.767579-272.815158-172.651789-71.545263-94.261895-145.785263-191.380211-330.401684-203.452632-8.030316 31.932632-21.719579 57.344-43.52 75.425684V404.210526c0 46.915368 5.443368 94.396632 16.491789 140.288C151.983158 575.191579 189.763368 592.842105 229.052632 592.842105c79.629474 0 143.333053-71.087158 148.237473-165.322105 0.916211-17.542737 0.431158-34.681263-0.727579-51.523368 18.701474 20.237474 35.974737 42.307368 53.517474 65.320421C419.193263 559.130947 334.551579 646.736842 229.052632 646.736842a188.200421 188.200421 0 0 1-75.641264-16.168421C212.102737 761.748211 331.910737 862.315789 538.947368 862.315789c110.160842 0 200.353684-37.618526 267.991579-111.831578 56.239158-61.682526 93.157053-146.647579 106.388211-240.128z m-2.021053-229.753264l-118.999579-147.078736-41.903158 33.899789 118.999579 147.078737 41.903158-33.89979z" fill="#231F20" /></svg>